<svg width="716" height="981" viewBox="0 0 716 981" fill="none" xmlns="http://www.w3.org/2000/svg">
<path d="M79.38 78.88L0.700012 157.56L1.11001 534.68L1.72001 911.8L8.23002 925.62C20.83 952.25 46.65 972.79 73.69 977.87C88.73 980.72 628.29 980.72 643.33 977.87C670.37 972.79 696.19 952.25 708.79 925.62L715.3 911.8V489.95V68.1L708.79 54.28C696.18 27.65 670.37 7.10995 643.33 2.02995C636.42 0.809954 545.54 -2.68103e-05 395.31 -2.68103e-05H158.26L79.38 78.88ZM641.5 43.1C653.09 46.56 668.54 60.99 673.01 72.78C676.47 81.93 676.67 100.43 676.67 489.95C676.67 879.47 676.47 897.97 673.01 907.12C668.54 918.91 653.09 933.34 641.5 936.8C629.91 940.26 87.11 940.26 75.52 936.8C64.75 933.55 48.89 919.11 44.21 908.34C40.55 900.01 40.35 885.37 39.74 528.99L39.33 158.58H99.3H159.27V99.62V40.66H396.32C573.6 40.66 635.6 41.27 641.5 43.1Z" fill="black"/>
<path d="M409.13 109.78C384.33 114.05 363.39 130.92 354.03 154.1C349.96 164.27 349.35 169.35 349.35 193.13C349.35 224.03 351.99 234.2 363.78 250.66C380.66 273.84 416.03 281.77 454.66 270.99L466.25 267.74V253.71C466.25 239.89 466.05 239.48 461.78 240.7C421.32 252.49 399.57 248.22 388.8 226.27C384.73 217.94 384.12 213.46 383.92 194.15C383.92 174.02 384.53 170.57 389.41 160.2C396.93 144.14 407.1 137.43 424.17 137.63C432.1 137.63 440.84 139.26 447.55 142.1C453.45 144.34 458.94 146.37 459.75 146.37C460.56 146.37 463.41 140.68 466.05 133.77C470.73 121.98 470.73 121.17 467.27 118.73C457.72 111.61 425.8 106.73 409.13 109.78Z" fill="black"/>
<path d="M481.3 115.27C482.11 117.1 493.09 149.42 505.9 186.83C518.71 224.44 530.5 259.61 532.53 264.9L535.78 274.66L554.28 274.05L572.78 273.44L599.82 194.15C614.66 150.65 626.86 114.25 626.86 113.44C626.86 112.42 619.34 111.81 609.99 111.81H593.12L575.43 168.12C565.67 199.22 557.13 228.7 556.52 233.58C554.89 243.34 553.06 241.71 550.62 228.7C549.4 221.38 533.75 169.95 519.92 127.46L514.63 111.81H497.35C481.91 111.81 480.28 112.22 481.3 115.27Z" fill="black"/>
<path d="M105.81 389.93C101.13 395.01 100.93 425.1 105.4 428.96C109.87 432.62 611.21 432.82 615.68 428.96C620.56 424.89 619.95 394.2 615.07 389.72C611.61 386.47 591.08 386.26 360.13 386.26C119.43 386.27 108.86 386.47 105.81 389.93Z" fill="black"/>
<path d="M106.83 501.33C102.76 504.18 102.36 506.21 102.36 521.46C102.36 536.71 102.77 538.74 106.83 541.59C110.9 544.43 138.34 544.84 360.55 544.84C582.76 544.84 610.2 544.43 614.27 541.59C618.34 538.74 618.74 536.71 618.74 521.46C618.74 506.21 618.33 504.18 614.27 501.33C610.2 498.49 582.76 498.08 360.55 498.08C138.34 498.08 110.89 498.49 106.83 501.33Z" fill="black"/>
<path d="M106.83 613.15C102.76 616 102.36 618.03 102.36 633.28C102.36 648.53 102.77 650.56 106.83 653.41C110.9 656.26 138.34 656.66 360.55 656.66C582.76 656.66 610.2 656.25 614.27 653.41C618.34 650.56 618.74 648.53 618.74 633.28C618.74 618.03 618.33 616 614.27 613.15C610.2 610.31 582.76 609.9 360.55 609.9C138.34 609.89 110.89 610.3 106.83 613.15Z" fill="black"/>
<path d="M104.79 726.18C100.93 730.04 101.54 761.35 105.6 765.21C108.45 768.06 134.27 768.46 360.33 768.46C651.05 768.46 618.72 771.51 618.72 744.88C618.72 734.92 617.7 727.6 616.28 726.18C612.83 722.73 108.25 722.73 104.79 726.18Z" fill="black"/>
<path d="M104.79 838C100.93 841.86 101.54 873.17 105.6 877.03C108.45 879.88 134.27 880.28 360.54 880.28C586.81 880.28 612.63 879.87 615.48 877.03C619.55 873.17 620.16 841.86 616.29 838C612.83 834.54 108.25 834.54 104.79 838Z" fill="black"/>
</svg>
