<svg width="38" height="40" viewBox="0 0 38 40" fill="none" xmlns="http://www.w3.org/2000/svg">
<path d="M0.436032 17.035C1.76231 9.80547 6.17534 4.36612 12.6789 1.94482C15.5319 0.882656 19.6656 0.630001 22.796 1.32646C34.637 3.96084 40.8134 17.4852 35.3672 28.8537C32.3022 35.2516 25.9354 39.3048 18.9504 39.3048C8.69129 39.3048 0.753227 31.4704 0.318402 20.9162C0.258452 19.461 0.311403 17.7145 0.436032 17.035V17.035ZM7.31072 22.7683C7.59159 23.2049 10.0617 25.8567 12.7998 28.6613C19.3815 35.4026 18.2888 35.4031 24.8444 28.6563C27.5667 25.8546 29.9912 23.1586 30.2323 22.6652C30.8433 21.415 30.6286 19.4006 29.7887 18.5014C27.9682 16.5527 25.8118 16.6112 23.8637 18.6622L23.0699 19.4979L22.9377 13.9418C22.8166 8.85943 22.7589 8.32351 22.2598 7.65599C21.2501 6.30521 20.3664 5.83521 18.8366 5.83521C17.2442 5.83521 16.3266 6.35395 15.3309 7.81689C14.7615 8.65356 14.7356 8.9268 14.7356 14.1009V19.5103L13.3933 18.3035C12.6086 17.598 11.6817 17.0274 11.1616 16.9299C9.57183 16.6316 7.99252 17.463 7.10683 19.0644C6.63341 19.9203 6.74148 21.8838 7.31072 22.7685V22.7683Z" fill=" rgb(97, 97, 97)"/>
</svg>
