<svg width="102" height="97" viewBox="0 0 102 97" fill="none" xmlns="http://www.w3.org/2000/svg">
<path d="M0.774818 77.321C0.843998 59.3482 0.942556 58.09 1.9937 61.7607C5.65115 74.5327 15.8026 86.6596 27.5495 92.2894C34.2024 95.4779 38.0782 96.0571 38.9075 93.9868C39.567 92.3404 39.567 86.8953 38.9075 85.2489C38.5253 84.2949 37.1994 83.9727 33.6468 83.9704C27.6636 83.9664 24.1382 82.0216 21.6521 77.3527C20.6392 75.4504 18.4666 72.7148 16.8242 71.2734L13.838 68.6528H16.5012C18.6455 68.6528 19.0591 68.9157 18.6238 70.0023C18.2034 71.052 18.4199 71.2281 19.5987 70.7947C21.77 69.9965 23.5107 71.6766 22.9056 73.9863C22.3825 75.9829 23.7342 76.7016 24.6276 74.902C24.9028 74.3476 24.9699 74.7101 24.7767 75.7075C24.3971 77.6681 25.7851 79.0844 26.6986 77.6685C27.0584 77.1108 27.7006 77.0695 28.4983 77.5528C29.3368 78.0608 29.3978 78.3083 28.6865 78.3166C28.1079 78.3236 27.6344 78.6918 27.6344 79.1353C27.6344 79.5788 28.4143 79.9417 29.3675 79.9417C30.3207 79.9417 30.8665 79.5788 30.5804 79.1353C30.2943 78.6918 30.6388 78.329 31.346 78.329C32.1432 78.329 32.4477 78.7887 32.1473 79.5385C31.8328 80.3237 32.169 80.748 33.1055 80.748C34.0421 80.748 34.3782 80.3237 34.0637 79.5385C33.7686 78.8017 34.0627 78.329 34.8154 78.329C35.4953 78.329 36.0515 78.9035 36.0515 79.6057C36.0515 80.3079 36.525 80.7224 37.1037 80.5268C37.6823 80.3313 38.1032 79.5753 38.0389 78.8469C37.9746 78.1186 38.2587 77.5226 38.6702 77.5226C39.0817 77.5226 39.4184 76.8663 39.4184 76.064C39.4184 75.2618 39.9745 73.9011 40.6542 73.0402C42.443 70.7746 42.284 70.5056 38.7871 69.8824C30.6177 68.4263 23.9382 63.907 21.4257 58.1356C18.4105 51.2095 18.9663 41.2661 22.6453 36.3165C23.8538 34.6906 24.1157 33.2948 23.7814 30.2615C23.5425 28.0934 23.6855 25.2309 24.0991 23.9004C24.7609 21.772 25.1865 21.5081 27.6418 21.7037C29.1766 21.826 32.1906 22.8429 34.3396 23.9634C38.0321 25.8887 38.6031 25.9583 44.7247 25.2302C48.8418 24.7406 53.563 24.7406 57.6801 25.2302C63.8016 25.9583 64.3726 25.8887 68.0651 23.9634C70.2141 22.8429 73.2282 21.826 74.7629 21.7037C77.2182 21.5081 77.6438 21.772 78.3056 23.9004C78.7193 25.2309 78.8622 28.0934 78.6233 30.2615C78.289 33.2948 78.5509 34.6906 79.7594 36.3165C84.8773 43.2019 83.7028 56.9838 77.4613 63.2838C74.5464 66.2259 70.0387 68.4314 64.6976 69.5287C62.3676 70.0074 60.4612 70.5632 60.4612 70.7638C60.4612 70.9644 61.101 72.064 61.883 73.2073C63.0029 74.8447 63.2714 76.936 63.1477 83.0567C62.9336 93.6448 63.3522 95.2623 66.307 95.2623C67.5968 95.2623 71.4436 93.9245 74.8553 92.2894C86.6021 86.6596 96.7536 74.5327 100.411 61.7607C101.462 58.09 101.561 59.3482 101.63 77.321L101.705 96.875H51.2024H0.699554L0.774818 77.321ZM22.1633 71.8782C21.8771 71.4347 21.2866 71.0718 20.851 71.0718C20.4154 71.0718 20.059 71.4347 20.059 71.8782C20.059 72.3217 20.6495 72.6845 21.3712 72.6845C22.0929 72.6845 22.4494 72.3217 22.1633 71.8782ZM0.774818 20.4734L0.699554 0.113098H51.2024H101.705L101.63 20.4734C101.561 39.1265 101.459 40.4989 100.411 36.8401C96.5937 23.51 86.4177 11.6634 73.8437 5.91145C65.4706 2.0812 60.2015 0.919447 51.2023 0.919447C42.2032 0.919447 36.934 2.0812 28.5609 5.91145C15.9869 11.6634 5.81092 23.51 1.99364 36.8401C0.945923 40.4989 0.843718 39.1265 0.774765 20.4734H0.774818Z" fill="white"/>
<path d="M38.8289 89.6179C38.8289 87.1787 38.9867 86.1808 39.1796 87.4004C39.3724 88.62 39.3724 90.6157 39.1796 91.8353C38.9867 93.0549 38.8289 92.0571 38.8289 89.6179ZM63.2626 87.602C63.2666 84.4975 63.4184 83.3264 63.6006 84.9993C63.7828 86.6723 63.7798 89.2123 63.5936 90.6438C63.4077 92.0752 63.2587 90.7065 63.2624 87.602H63.2626ZM31.843 79.9893C31.843 79.5719 32.2174 79.0088 32.675 78.7379C33.1522 78.4554 33.2933 78.7791 33.0058 79.4966C32.4463 80.8935 31.843 81.1491 31.843 79.9893V79.9893ZM36.5676 78.1814C36.8107 77.8046 37.3622 77.7051 37.7931 77.9602C38.8944 78.6123 38.7704 78.8665 37.3511 78.8665C36.6771 78.8665 36.3245 78.5582 36.5676 78.1814V78.1814ZM25.0019 64.0163C23.9549 62.7374 23.9847 62.7088 25.3197 63.7118C26.1298 64.3205 26.7927 64.9555 26.7927 65.1229C26.7927 65.7866 26.1015 65.3594 25.0019 64.0163V64.0163ZM47.6777 24.5591C48.2853 24.3262 49.0113 24.3548 49.291 24.6228C49.5707 24.8907 49.0735 25.0813 48.1862 25.0463C47.2057 25.0076 47.0062 24.8165 47.6777 24.5591V24.5591ZM53.5697 24.5591C54.1773 24.3262 54.9033 24.3548 55.183 24.6228C55.4627 24.8907 54.9655 25.0813 54.0782 25.0463C53.0977 25.0076 52.8982 24.8165 53.5697 24.5591V24.5591Z" fill="#698DD1"/>
<path d="M14.945 83.3687L12.9044 81.1512L15.2191 83.106C17.3826 84.9331 17.9198 85.5861 17.2597 85.5861C17.1089 85.5861 16.0673 84.5883 14.945 83.3687ZM86.5543 83.5702C87.6416 82.4615 88.7206 81.5544 88.9521 81.5544C89.1835 81.5544 88.4833 82.4615 87.396 83.5702C86.3088 84.679 85.2298 85.5861 84.9983 85.5861C84.7668 85.5861 85.4671 84.679 86.5543 83.5702Z" fill="#698DD1"/>
<path d="M32.5268 84.2289C33.1345 83.996 33.8604 84.0246 34.1401 84.2925C34.4198 84.5605 33.9227 84.7511 33.0354 84.716C32.0548 84.6773 31.8554 84.4863 32.5268 84.2289V84.2289Z" fill=" rgb(97, 97, 97)"/>
<path d="M21.1813 70.5471C21.1813 69.7532 21.4649 69.7102 22.3035 70.377C22.9208 70.8678 23.4258 71.3458 23.4258 71.4394C23.4258 71.5329 22.9208 71.6094 22.3035 71.6094C21.6863 71.6094 21.1813 71.1313 21.1813 70.5471ZM18.5085 46.8814C18.5085 45.7726 18.6995 45.3191 18.933 45.8734C19.1665 46.4278 19.1665 47.3349 18.933 47.8893C18.6995 48.4437 18.5085 47.9901 18.5085 46.8814ZM83.3204 46.8814C83.3204 45.7726 83.5114 45.3191 83.7449 45.8734C83.9784 46.4278 83.9784 47.3349 83.7449 47.8893C83.5114 48.4437 83.3204 47.9901 83.3204 46.8814ZM22.717 28.3353C22.717 27.2266 22.9081 26.773 23.1416 27.3274C23.3751 27.8818 23.3751 28.7889 23.1416 29.3433C22.9081 29.8976 22.717 29.4441 22.717 28.3353ZM79.1118 28.3353C79.1118 27.2266 79.3029 26.773 79.5364 27.3274C79.7699 27.8818 79.7699 28.7889 79.5364 29.3433C79.3029 29.8976 79.1118 29.4441 79.1118 28.3353Z" fill="#698DD1"/>
<mask id="path-6-inside-1" fill="white">
<path d="M25.8436 75.3052C24.7966 74.0263 24.8264 73.9977 26.1614 75.0007C27.5635 76.0541 28.0094 76.7163 27.3166 76.7163C27.1418 76.7163 26.479 76.0813 25.8436 75.3052V75.3052Z"/>
</mask>
<path d="M25.8436 75.3052C24.7966 74.0263 24.8264 73.9977 26.1614 75.0007C27.5635 76.0541 28.0094 76.7163 27.3166 76.7163C27.1418 76.7163 26.479 76.0813 25.8436 75.3052V75.3052Z" fill=" rgb(97, 97, 97)"/>
<path d="M26.1614 75.0007L25.5607 75.8002L25.5607 75.8002L26.1614 75.0007ZM26.6174 74.6717C26.3532 74.3491 26.1742 74.126 26.0674 73.9818C26.0099 73.9042 25.9983 73.8825 26.0055 73.8955C26.009 73.9018 26.0176 73.9176 26.0282 73.941C26.0377 73.9623 26.0562 74.006 26.0724 74.0661C26.0866 74.1187 26.1138 74.2366 26.1013 74.39C26.0877 74.5558 26.0214 74.8083 25.801 75.0193C25.586 75.2254 25.3415 75.279 25.1959 75.2899C25.0558 75.3005 24.9481 75.2777 24.8995 75.2657C24.8441 75.252 24.8037 75.2363 24.784 75.2282C24.7624 75.2193 24.748 75.2121 24.7427 75.2094C24.7331 75.2044 24.7582 75.2173 24.8391 75.2723C24.9906 75.3753 25.2241 75.5473 25.5607 75.8002L26.7621 74.2012C26.4312 73.9527 26.1604 73.7521 25.9635 73.6183C25.8702 73.5549 25.7602 73.4833 25.6535 73.4288C25.6067 73.4048 25.5064 73.3555 25.3796 73.3242C25.3163 73.3085 25.1961 73.2843 25.0459 73.2956C24.8902 73.3073 24.638 73.3639 24.4175 73.5751C23.9707 74.0031 24.1309 74.5477 24.1413 74.5864C24.1773 74.72 24.2332 74.8236 24.2586 74.8692C24.3176 74.9752 24.3941 75.0829 24.4602 75.1722C24.6006 75.3617 24.8105 75.6218 25.0698 75.9386L26.6174 74.6717ZM25.5607 75.8002C26.259 76.3248 26.5976 76.6673 26.6951 76.8121C26.7139 76.8399 26.6888 76.8112 26.6663 76.7347C26.644 76.6594 26.5999 76.4506 26.7066 76.2019C26.8217 75.9337 27.0312 75.8047 27.158 75.7549C27.268 75.7117 27.3379 75.7163 27.3166 75.7163V77.7163C27.4685 77.7163 27.676 77.7001 27.8888 77.6166C28.1183 77.5265 28.3956 77.3375 28.5445 76.9908C28.6849 76.6636 28.6403 76.3577 28.5842 76.1677C28.5277 75.9766 28.4353 75.8157 28.354 75.695C28.0512 75.2453 27.4659 74.73 26.7621 74.2012L25.5607 75.8002ZM27.3166 75.7163C27.4484 75.7163 27.5467 75.7445 27.5927 75.7597C27.6437 75.7766 27.6783 75.7939 27.6927 75.8014C27.72 75.8157 27.7236 75.8209 27.6976 75.8016C27.6483 75.765 27.563 75.6931 27.4446 75.5797C27.212 75.3568 26.9146 75.0348 26.6174 74.6717L25.0698 75.9386C25.4079 76.3516 25.7597 76.7352 26.061 77.0239C26.2096 77.1662 26.3625 77.3015 26.5065 77.4082C26.5772 77.4607 26.6661 77.5215 26.7657 77.5736C26.8335 77.609 27.0425 77.7163 27.3166 77.7163V75.7163Z" fill=" rgb(97, 97, 97)" mask="url(#path-6-inside-1)"/>
<path d="M28.5271 91.9645C-1.65355 77.4933 -8.10951 38.4426 15.8794 15.4615C35.4546 -3.29117 66.9502 -3.29117 86.5253 15.4615C110.641 38.5636 104.029 77.6414 73.5571 92.1062C64.0649 96.6122 63.8298 96.428 63.8229 84.4794C63.8189 78.2677 63.4466 74.8253 62.6118 73.2923C61.4523 71.1629 61.4929 71.06 63.6692 70.6157C73.0096 68.7087 79.6759 63.8049 82.0423 57.1004C84.2581 50.8226 84.009 42.5355 81.4685 38.0115C79.9404 35.2903 79.416 33.0723 79.3714 29.1417C79.2851 21.5394 78.5738 19.9866 75.4516 20.5848C74.0678 20.8499 71.1704 21.8484 69.0131 22.8036C65.5597 24.3327 63.4801 24.5543 51.6232 24.6564C39.262 24.7628 37.8101 24.6217 33.9472 22.938C31.6325 21.9292 28.5458 20.8785 27.0878 20.6032C24.8225 20.1755 24.3393 20.3789 23.7649 22.0016C23.3953 23.0459 23.0661 26.259 23.0334 29.1417C22.9888 33.0723 22.4643 35.2903 20.9362 38.0115C18.3957 42.5355 18.1466 50.8226 20.3624 57.1004C22.7265 63.7982 29.4016 68.7127 38.7121 70.61L40.9517 71.0665L39.3715 74.1997C38.1225 76.6763 37.1897 77.4411 34.921 77.8489C30.9453 78.5634 28.2726 77.3826 24.98 73.4571C21.9723 69.8711 18.6928 67.8464 15.8922 67.8464C13.6015 67.8464 13.6953 69.8575 16.0599 71.4442C17.1011 72.1428 19.0944 74.577 20.4897 76.8535C24.2231 82.9449 26.635 84.3766 33.1635 84.3766H38.5722L38.5742 88.8518C38.5762 92.8647 37.6061 95.2623 35.9804 95.2623C35.6637 95.2623 32.3096 93.7783 28.5268 91.9645H28.5271Z" fill="#698DD1"/>
</svg>
