<svg width="142" height="142" viewBox="0 0 142 142" fill="none" xmlns="http://www.w3.org/2000/svg">
<path d="M7.5479 141.209C5.14085 140.445 3.26336 139.003 1.89117 136.865C0.159696 134.167 0.271861 138.734 0.271861 70.9342C0.271861 16.2091 0.31725 9.22322 0.68192 7.82315C1.44243 4.90338 3.52039 2.43528 6.32552 1.11998L7.81249 0.42276H71.0479H134.283L135.77 1.11998C138.575 2.43528 140.653 4.90338 141.414 7.82315C141.779 9.22322 141.824 16.2091 141.824 70.9342C141.824 125.659 141.779 132.645 141.414 134.045C140.653 136.965 138.575 139.433 135.77 140.748L134.283 141.446L71.4448 141.495C21.2874 141.535 8.39266 141.477 7.5479 141.209V141.209ZM42.3406 87.0738V53.2071H31.7573H21.1739V87.0738V120.94H31.7573H42.3406V87.0738ZM76.4726 102.75C76.4731 91.3631 76.5803 83.6697 76.7594 82.179C77.3286 77.4405 79.0293 73.9003 81.5731 72.1588C83.8898 70.5727 84.9136 70.3069 88.775 70.2889C92.0271 70.2737 92.3049 70.3145 93.8713 71.0379C96.4889 72.2468 98.1695 74.5087 99.1475 78.1391C99.5421 79.6041 99.6114 82.1914 99.7409 100.303L99.8875 120.808L110.405 120.877L120.922 120.947V99.6906C120.922 86.6233 120.813 77.3211 120.64 75.5443C119.797 66.9064 117.69 61.5515 113.501 57.3942C109.957 53.8781 105.52 52.161 98.5142 51.5944C89.1287 50.8354 81.7723 53.9529 76.9734 60.7231L75.6781 62.5506V57.8789V53.2072H65.4917H55.3052V87.0739V120.941H65.8885H76.4719L76.4727 102.75L76.4726 102.75ZM35.5217 43.3973C38.8718 42.2687 41.2114 40.1701 42.7994 36.8694C44.9663 32.3649 43.971 26.8065 40.3488 23.1844C37.7755 20.6111 34.5806 19.4369 30.7949 19.673C26.4173 19.9461 22.6687 22.5439 20.7146 26.6587C18.6357 31.0363 19.4044 36.3354 22.6405 39.9347C25.0389 42.6023 27.9986 43.9085 31.6995 43.9325C33.2486 43.9426 34.3685 43.7857 35.5217 43.3973V43.3973Z" fill="#6C5D53"/>
<path d="M5.72018 140.045C4.77729 139.59 3.24649 137.997 2.31839 136.505L0.630951 133.792L0.786304 70.8861C0.921977 15.9495 1.08902 7.69562 2.1049 5.73112C4.64277 0.823434 0.173841 1.12201 71.0908 1.12201H135.545L137.865 3.20088C139.252 4.44377 140.465 6.49573 140.882 8.30356C141.797 12.2684 141.801 129.803 140.887 133.792C140.441 135.736 139.31 137.558 137.721 138.894L135.248 140.973L71.3412 140.922C26.7573 140.886 6.91618 140.621 5.72018 140.045ZM42.5863 86.9226V52.5268H31.625H20.6637V86.9226V121.318H31.625H42.5863V86.9226ZM76.7623 100.719C77.1347 78.4377 77.4325 76.6727 81.4449 72.9718C83.0239 71.5153 84.4757 71.0513 88.1946 70.8145C92.4062 70.5463 93.1867 70.7265 95.2187 72.4363C98.893 75.528 99.2827 78.2489 99.2827 100.806V121.318H110.305H121.328L121.027 95.8051C120.764 73.5291 120.551 69.812 119.351 66.5119C115.442 55.7557 108.651 51.4043 95.881 51.4739C87.7817 51.518 84.8744 52.6063 79.5498 57.5867L75.8482 61.0491V56.7666V52.4841L65.4539 52.6944L55.0595 52.9047L54.8628 87.1116L54.6661 121.318H65.5421H76.418L76.7623 100.719ZM38.6022 42.2099C42.5746 39.2441 43.7202 36.9 43.7202 31.7381C43.7202 26.5948 42.5727 24.2307 38.6572 21.3073C33.8697 17.7329 24.5722 19.562 21.442 24.6941C17.3823 31.3501 19.6927 40.1971 26.2692 43.1787C29.4649 44.6275 36.0578 44.1096 38.6022 42.2099V42.2099Z" fill="#6C5D53"/>
</svg>
