<svg width="245" height="203" viewBox="0 0 245 203" fill="none" xmlns="http://www.w3.org/2000/svg">
<path d="M57.2991 201.809C45.885 200.263 32.7515 196.883 22.5687 192.871C17.34 190.81 2.55459 183.617 0.634777 182.2C-0.152187 181.619 1.1153 181.502 10.7524 181.271C25.5331 180.917 34.5355 179.211 46.4756 174.502C57.134 170.298 74.0534 160.349 72.754 159.05C72.6392 158.935 70.5484 158.615 68.1078 158.338C60.8095 157.512 51.1184 153.826 44.5933 149.396C38.0963 144.986 32.3118 138.252 28.3173 130.45C26.8907 127.664 25.8342 125.205 25.9696 124.986C26.1051 124.767 30.4037 124.468 35.5222 124.322C44.6661 124.062 47.4323 123.706 47.7514 122.748C47.8398 122.483 46.6597 121.918 45.1291 121.492C43.5984 121.067 40.4426 119.893 38.1161 118.884C23.9987 112.761 12.7534 99.7686 9.10476 85.3654C8.15102 81.6005 6.80704 73.146 7.11357 72.8395C7.16647 72.7866 9.0365 73.4768 11.2692 74.3732C13.5019 75.2697 16.9896 76.431 19.0198 76.9539C23.4755 78.1015 30.005 78.7111 30.005 77.9794C30.005 77.7043 28.9592 76.7114 27.6809 75.7731C24.7825 73.6455 19.1748 67.6781 16.8376 64.2343C14.279 60.4642 11.4699 54.6647 10.1022 50.329C8.31943 44.6771 7.71675 39.548 8.03535 32.7386C8.3774 25.4279 9.50283 20.9781 12.8991 13.5077L14.2403 10.5576L17.2992 14.132C21.6225 19.184 33.5892 30.2786 39.325 34.5526C54.2952 45.7078 72.584 54.5254 90.2403 59.1006C98.3828 61.2105 108.153 62.8361 114.517 63.1401L120.206 63.4117L119.846 60.876C119.195 56.2917 119.366 45.1338 120.146 41.3581C123.144 26.8429 133.761 13.053 146.946 6.54832C158.669 0.765105 170.488 -0.53581 182.711 2.61175C190.377 4.58588 198.561 9.06067 204.402 14.4719L207.269 17.1283L212.402 15.7724C219.442 13.9124 224.921 11.9202 232.062 8.62315C235.393 7.0851 238.217 5.92506 238.338 6.04528C238.458 6.16549 237.469 8.3806 236.14 10.9678C231.894 19.2335 226.596 25.4735 220.05 29.9191C218.537 30.9465 217.299 32.021 217.299 32.3071C217.299 33.5342 230.051 30.8371 239.985 27.5091C242.333 26.7225 244.351 26.1761 244.469 26.2947C245.274 27.0994 231.059 42.3328 224.84 47.3307L221.156 50.2914L220.858 58.0805C219.998 80.5415 216.552 96.5138 208.519 115.276C187.686 163.929 145.842 195.573 94.0191 201.863C86.3494 202.794 64.3299 202.762 57.2991 201.809V201.809Z" fill="#876A58"/>
</svg>
