<svg width="38" height="40" viewBox="0 0 38 40" fill="none" xmlns="http://www.w3.org/2000/svg">
<path d="M37.0068 23.2044C35.6805 30.4339 31.2674 35.8733 24.7639 38.2946C21.9109 39.3568 17.7772 39.6094 14.6468 38.913C2.80575 36.2786 -3.37058 22.7542 2.07559 11.3857C5.14056 4.9878 11.5073 0.934662 18.4924 0.934662C28.7515 0.934662 36.6895 8.769 37.1244 19.3232C37.1844 20.7784 37.1314 22.5249 37.0068 23.2044ZM30.1321 17.4711C29.8512 17.0346 27.3811 14.3827 24.6429 11.5781C18.0613 4.8368 19.154 4.83631 12.5983 11.5831C9.87613 14.3848 7.45157 17.0808 7.21045 17.5742C6.59952 18.8244 6.81416 20.8388 7.6541 21.738C9.47457 23.6868 11.631 23.6282 13.5791 21.5772L14.3728 20.7415L14.5051 26.2976C14.6261 31.38 14.6839 31.9159 15.1829 32.5834C16.1927 33.9342 17.0763 34.4042 18.6062 34.4042C20.1985 34.4042 21.1162 33.8855 22.1119 32.4225C22.6813 31.5859 22.7072 31.3126 22.7072 26.1385V20.7291L24.0494 21.9359C24.8342 22.6415 25.7611 23.212 26.2811 23.3096C27.8709 23.6078 29.4503 22.7764 30.3359 21.175C30.8094 20.3191 30.7013 18.3557 30.1321 17.4709V17.4711Z" fill=" rgb(97, 97, 97)"/>
</svg>
